<svg xmlns="http://www.w3.org/2000/svg" class="svg-icon" viewBox="0 0 20 20">
		<path d="M 17.927 5.828 h -4.41 l -1.929 -1.961 c -0.078 -0.079 -0.186 -0.125 -0.297 -0.125 H 4.159 c -0.229 0 -0.417 0.188 -0.417 0.417 v 1.669 H 2.073 c -0.229 0 -0.417 0.188 -0.417 0.417 v 9.596 c 0 0.229 0.188 0.417 0.417 0.417 h 15.854 c 0.229 0 0.417 -0.188 0.417 -0.417 V 6.245 C 18.344 6.016 18.156 5.828 17.927 5.828 M 4.577 4.577 h 6.539 l 1.231 1.251 h -7.77 V 4.577 Z M 17.51 15.424 H 2.491 V 6.663 H 17.51 V 15.424 Z" ></path>
</svg>